<svg width="18" height="18" viewBox="0 0 18 18" fill="none" xmlns="http://www.w3.org/2000/svg">
<path d="M17.3869 5.5215C17.3458 4.62319 17.2035 4.01006 16.9948 3.47344C16.7794 2.91881 16.4908 2.448 16.0217 1.97887C15.5526 1.50975 15.0823 1.22119 14.5271 1.00575C13.9905 0.797063 13.3768 0.65475 12.4791 0.613687C11.5791 0.572062 11.2916 0.5625 9 0.5625C6.70837 0.5625 6.42094 0.572063 5.5215 0.613125C4.62319 0.654188 4.01006 0.7965 3.47344 1.00519C2.91881 1.22063 2.448 1.50919 1.97887 1.97831C1.50975 2.44744 1.22119 2.91769 1.00575 3.47287C0.797063 4.0095 0.65475 4.62319 0.613687 5.52094C0.572062 6.42094 0.5625 6.70837 0.5625 9C0.5625 11.2916 0.572063 11.5791 0.613125 12.4785C0.654188 13.3768 0.7965 13.9899 1.00519 14.5266C1.22063 15.0812 1.50919 15.552 1.97831 16.0211C2.44744 16.4902 2.91769 16.7788 3.47287 16.9943C4.0095 17.2029 4.62319 17.3453 5.52094 17.3863C6.42094 17.4279 6.70837 17.4375 9 17.4375C11.2916 17.4375 11.5791 17.4279 12.4785 17.3869C13.3768 17.3458 13.9899 17.2035 14.5266 16.9948C15.0812 16.7794 15.552 16.4908 16.0211 16.0217C16.4902 15.5526 16.7788 15.0823 16.9943 14.5271C17.2029 13.9905 17.3453 13.3768 17.3863 12.4791C17.4279 11.5791 17.4375 11.2916 17.4375 9C17.4375 6.70837 17.4279 6.42094 17.3869 5.5215ZM15.8681 12.4093C15.8304 13.2317 15.6932 13.6789 15.5779 13.9759C15.4249 14.3696 15.2421 14.6509 14.9467 14.9462C14.6514 15.2415 14.3702 15.4243 13.9764 15.5773C13.6789 15.6926 13.2323 15.8304 12.4099 15.8676C11.5206 15.9081 11.2534 15.9165 9.00056 15.9165C6.74775 15.9165 6.48056 15.9081 5.59125 15.8676C4.76888 15.8299 4.32169 15.6926 4.02469 15.5773C3.63094 15.4243 3.34969 15.2415 3.05438 14.9462C2.75906 14.6509 2.57625 14.3696 2.42325 13.9759C2.30794 13.6783 2.17012 13.2317 2.133 12.4093C2.0925 11.5194 2.08406 11.2528 2.08406 9C2.08406 6.74719 2.0925 6.48 2.133 5.59069C2.17069 4.76831 2.30794 4.32112 2.42325 4.02412C2.57625 3.63037 2.75906 3.34913 3.05438 3.05381C3.34969 2.7585 3.63094 2.57569 4.02469 2.42269C4.32225 2.30737 4.76888 2.16956 5.59125 2.13244C6.48113 2.09194 6.74775 2.0835 9.00056 2.0835C11.2534 2.0835 11.5206 2.09194 12.4099 2.13244C13.2323 2.17013 13.6794 2.30737 13.9764 2.42269C14.3702 2.57569 14.6514 2.7585 14.9467 3.05381C15.2421 3.34913 15.4249 3.63037 15.5779 4.02412C15.6932 4.32169 15.831 4.76831 15.8681 5.59069C15.9086 6.48056 15.9171 6.74719 15.9171 9C15.9171 11.2528 15.9086 11.52 15.8681 12.4093ZM9 4.66706C6.60712 4.66706 4.66706 6.60712 4.66706 9C4.66706 11.3929 6.60712 13.3329 9 13.3329C11.3929 13.3329 13.3329 11.3929 13.3329 9C13.3329 6.60712 11.3929 4.66706 9 4.66706ZM9 11.8125C7.44694 11.8125 6.1875 10.5531 6.1875 9C6.1875 7.44694 7.44694 6.1875 9 6.1875C10.5531 6.1875 11.8125 7.44694 11.8125 9C11.8125 10.5531 10.5531 11.8125 9 11.8125ZM13.5039 3.48356C12.9448 3.48356 12.4914 3.93694 12.4914 4.49606C12.4914 5.05519 12.9448 5.50856 13.5039 5.50856C14.0631 5.50856 14.5164 5.05519 14.5164 4.49606C14.5164 3.93694 14.0631 3.48356 13.5039 3.48356Z" fill="black"/>
</svg>
