<svg width="18" height="10" viewBox="0 0 18 10" fill="none" xmlns="http://www.w3.org/2000/svg">
<path d="M13.5214 0.5C14.7606 0.5 15.8164 0.950562 16.6899 1.85225C17.5635 2.72525 18 3.78162 18 5.02137C18 6.26056 17.5635 7.331 16.6899 8.23269C15.8169 9.10569 14.7606 9.54219 13.5214 9.54219H9.88762V7.80969H13.5214C14.2819 7.80969 14.9299 7.5425 15.4648 7.007C16.0284 6.44338 16.3097 5.78187 16.3097 5.02137C16.3097 4.26031 16.0284 3.61288 15.4648 3.07738C14.9293 2.51431 14.2819 2.2325 13.5214 2.2325H9.88762V0.5H13.5214ZM5.40844 5.90844V4.13375H12.5916V5.90844H5.40844ZM2.493 3.07738C1.9575 3.61288 1.69031 4.26031 1.69031 5.02137C1.69031 5.78187 1.9575 6.44394 2.493 7.007C3.05662 7.5425 3.71812 7.80969 4.47862 7.80969H8.11238V9.54219H4.47862C3.23944 9.54219 2.18363 9.10569 1.31006 8.23212C0.4365 7.33156 0 6.26056 0 5.02137C0 3.78162 0.4365 2.72525 1.31006 1.85225C2.1825 0.95 3.23944 0.5 4.47862 0.5H8.11238V2.2325H4.47862C3.71812 2.2325 3.05606 2.51375 2.493 3.07738Z" fill="black"/>
</svg>
