<svg width="19" height="19" viewBox="0 0 19 19" fill="none" xmlns="http://www.w3.org/2000/svg">
<path d="M9 0C4.05 0 0 4.05 0 9C0 12.7125 2.19375 15.8625 5.4 17.2688C5.4 16.65 5.4 15.8625 5.56875 15.1875C5.7375 14.4563 6.75 10.2937 6.75 10.2937C6.75 10.2937 6.46875 9.73125 6.46875 8.8875C6.46875 7.5375 7.25625 6.58125 8.2125 6.58125C9.05625 6.58125 9.45 7.2 9.45 7.93125C9.45 8.775 8.94375 10.0125 8.6625 11.1375C8.4375 12.0938 9.16875 12.8813 10.0688 12.8813C11.7563 12.8813 12.9375 10.6875 12.9375 8.1C12.9375 6.13125 11.5875 4.66875 9.16875 4.66875C6.4125 4.66875 4.725 6.69375 4.725 9C4.725 9.7875 4.95 10.35 5.34375 10.7437C5.5125 10.9125 5.5125 11.025 5.45625 11.25C5.4 11.4187 5.2875 11.8125 5.2875 11.9812C5.23125 12.2062 5.0625 12.3188 4.8375 12.2063C3.6 11.7 2.98125 10.2937 2.98125 8.775C2.98125 6.24375 5.11875 3.15 9.39375 3.15C12.825 3.15 15.075 5.625 15.075 8.325C15.075 11.8687 13.1063 14.5125 10.2375 14.5125C9.28125 14.5125 8.325 14.0062 8.04375 13.3875C8.04375 13.3875 7.5375 15.4688 7.425 15.8625C7.25625 16.5375 6.8625 17.2687 6.525 17.775C7.3125 18 8.2125 18.1687 9.05625 18.1687C14.0062 18.1687 18.0562 14.1187 18.0562 9.16875C18 4.05 13.95 0 9 0Z" fill="black"/>
</svg>
